<?xml version="1.0" standalone="no"?>
<!DOCTYPE svg PUBLIC "-//W3C//DTD SVG 20010904//EN"
 "http://www.w3.org/TR/2001/REC-SVG-20010904/DTD/svg10.dtd">
<svg version="1.0" xmlns="http://www.w3.org/2000/svg"
 width="408.000000pt" height="408.000000pt" viewBox="0 0 408.000000 408.000000"
 preserveAspectRatio="xMidYMid meet">
<metadata>
Created by potrace 1.11, written by Peter Selinger 2001-2013
</metadata>
<g transform="translate(0.000000,408.000000) scale(0.100000,-0.100000)"
fill="#000000" stroke="none">
<path d="M2081 3391 l-24 -6 29 -14 c16 -8 61 -15 99 -16 181 -5 304 -70 361
-189 19 -40 22 -63 20 -120 -2 -39 -6 -78 -8 -86 -3 -8 -8 -28 -13 -43 -39
-141 -215 -363 -408 -515 -82 -65 -103 -73 -114 -44 -4 9 -15 30 -24 46 l-17
29 -36 -69 c-20 -38 -56 -105 -81 -149 -24 -44 -49 -91 -55 -105 -6 -14 -19
-33 -27 -42 -9 -10 -14 -18 -12 -19 2 0 13 -2 24 -4 11 -3 54 -7 95 -10 41 -3
95 -8 120 -10 99 -10 200 -15 200 -11 0 3 -9 20 -19 38 l-20 33 81 60 c98 74
249 220 308 300 25 33 47 62 50 65 16 15 80 135 107 200 132 321 14 579 -304
661 -79 20 -283 33 -332 20z"/>
<path d="M1722 3364 c-225 -40 -465 -167 -637 -339 -110 -110 -118 -120 -161
-205 -40 -81 -53 -167 -34 -226 45 -136 241 -184 491 -119 393 102 774 449
763 696 -3 84 -61 156 -147 185 -63 21 -183 24 -275 8z m-11 -139 c79 -41 69
-138 -26 -243 -190 -211 -545 -267 -545 -86 0 43 39 114 91 166 144 144 369
220 480 163z"/>
<path d="M2428 3205 c-2 -1 -21 -5 -43 -9 -48 -7 -177 -34 -180 -38 -2 -2 -6
-19 -9 -38 -21 -127 -104 -262 -238 -384 l-71 -65 74 29 c42 16 86 31 100 34
13 3 69 17 124 30 55 14 125 28 155 32 30 5 58 9 63 10 4 1 14 2 22 3 8 0 24
19 35 41 59 116 70 236 29 311 -20 36 -48 56 -61 44z"/>
<path d="M2794 3129 c29 -95 40 -228 22 -257 -10 -16 6 -21 80 -27 38 -3 78
-8 89 -10 11 -2 34 -4 51 -4 56 -2 66 -18 69 -117 3 -89 -11 -168 -40 -231 -8
-17 -15 -34 -15 -39 0 -4 -18 -38 -40 -76 -46 -79 -46 -82 -22 -69 25 14 238
91 250 91 5 0 8 -15 7 -32 -2 -18 -6 -91 -10 -162 -3 -72 -8 -133 -11 -138 -3
-4 -1 -8 4 -8 8 0 49 87 59 125 51 189 30 381 -63 571 -67 138 -139 230 -244
312 -29 23 -133 76 -169 87 -22 7 -23 5 -17 -16z"/>
<path d="M809 2654 c-9 -11 -30 -42 -46 -70 -225 -374 -131 -707 226 -799 137
-35 322 -37 466 -5 22 5 51 11 65 14 50 10 197 56 260 82 65 26 200 92 200 97
0 2 -10 3 -22 3 -19 1 -88 6 -228 19 -14 1 -29 3 -33 3 -5 1 12 40 38 87 25
47 41 85 35 85 -6 0 -32 -11 -58 -24 -74 -37 -247 -93 -362 -116 -381 -78
-640 44 -625 295 5 89 11 111 61 212 25 51 44 102 42 114 -3 21 -3 21 -19 3z"/>
<path d="M2652 2472 c-10 -9 -37 -42 -60 -72 -44 -59 -187 -202 -265 -264 -26
-22 -46 -40 -44 -42 2 -2 40 12 86 31 153 65 383 127 492 134 15 1 87 100 123
169 13 25 14 33 4 37 -42 15 -107 22 -205 23 -92 1 -115 -2 -131 -16z"/>
<path d="M1480 2450 c0 -4 -64 -22 -170 -46 -14 -3 -70 -7 -125 -9 -81 -2
-112 2 -165 19 l-64 22 -36 -36 c-70 -70 -130 -148 -130 -167 0 -23 37 -75 71
-101 51 -38 142 -67 225 -71 l51 -2 53 68 c58 74 244 264 300 306 30 23 32 26
12 24 -12 -1 -22 -4 -22 -7z"/>
<path d="M3105 2294 c-44 -17 -87 -33 -95 -37 -28 -10 -184 -68 -287 -105 -57
-20 -103 -39 -103 -42 0 -3 23 -21 50 -40 27 -19 50 -38 50 -42 0 -11 -176
-149 -275 -215 -355 -238 -697 -394 -985 -449 -91 -17 -263 -23 -345 -12 -102
14 -208 58 -274 114 l-40 35 19 49 c11 28 35 82 55 121 19 39 33 74 30 79 -2
4 -19 13 -37 20 -49 20 -117 68 -164 117 l-42 44 -5 -33 c-6 -39 -2 -233 6
-266 35 -140 149 -329 266 -441 115 -110 224 -165 391 -197 40 -7 223 -7 248
0 9 3 37 8 62 11 187 26 499 154 802 331 131 76 290 179 343 221 17 13 35 27
40 31 44 32 120 95 168 142 32 30 62 56 67 58 5 2 30 -11 55 -29 25 -18 47
-30 49 -28 4 3 11 100 21 284 9 160 17 271 20 275 1 3 0 12 -4 20 -5 13 -18
11 -86 -16z"/>
<path d="M3346 2189 c-5 -31 -2 -46 13 -68 39 -54 48 -135 28 -251 -9 -53
-104 -226 -167 -304 -51 -63 -133 -147 -240 -246 -66 -61 -220 -171 -345 -247
-259 -157 -528 -262 -782 -308 -71 -13 -311 -15 -353 -3 -111 31 -213 100
-226 155 -7 25 -54 53 -89 53 -13 0 -13 -3 -3 -22 54 -93 157 -179 269 -224
165 -67 414 -78 659 -29 167 34 457 155 622 261 72 46 216 153 248 183 9 9 34
32 56 51 176 158 330 397 384 594 28 99 30 227 5 311 -19 68 -51 135 -64 135
-5 0 -11 -18 -15 -41z"/>
<path d="M1810 1833 c-66 -30 -153 -60 -194 -69 -10 -2 -34 -8 -52 -14 -19 -6
-46 -13 -61 -16 -16 -2 -66 -10 -113 -17 l-85 -13 -47 -78 c-51 -85 -105 -212
-94 -223 7 -7 94 -8 178 -3 42 3 52 9 80 44 96 120 229 248 362 347 81 61 87
69 26 42z"/>
<path d="M3013 1681 c-256 -236 -761 -534 -1108 -656 -86 -30 -91 -33 -113
-77 -12 -25 -25 -67 -29 -93 l-5 -47 53 6 c58 7 251 51 284 66 11 4 43 16 71
25 44 16 53 24 77 69 88 168 379 336 582 336 68 0 77 6 202 126 87 85 163 172
163 189 0 18 -73 59 -117 65 -32 5 -47 3 -60 -9z"/>
<path d="M3225 1314 c-56 -85 -273 -277 -436 -384 -218 -143 -527 -269 -727
-296 -29 -4 -54 -10 -57 -14 -6 -10 140 -2 200 11 28 6 61 13 75 15 14 3 66
19 115 36 247 84 496 237 670 412 50 50 97 101 107 113 36 47 87 133 79 133
-5 0 -16 -12 -26 -26z"/>
</g>
</svg>
